<svg xmlns="http://www.w3.org/2000/svg" width="42.438" height="42.438" viewBox="0 0 42.438 42.438">
  <path id="facebook" d="M6.217,42.438H20.059V27.353H15.085V22.379h4.973V16.163a6.224,6.224,0,0,1,6.217-6.217h6.217V14.92H27.518a2.489,2.489,0,0,0-2.487,2.487v4.973h7.235l-.829,4.973H25.032V42.438h11.19a6.224,6.224,0,0,0,6.217-6.217V6.217A6.224,6.224,0,0,0,36.222,0H6.217A6.224,6.224,0,0,0,0,6.217V36.222A6.224,6.224,0,0,0,6.217,42.438ZM2.487,6.217a3.734,3.734,0,0,1,3.73-3.73H36.222a3.734,3.734,0,0,1,3.73,3.73V36.222a3.734,3.734,0,0,1-3.73,3.73h-8.7V29.839h6.026L35.2,19.893H27.518V17.406h7.46V7.46h-8.7a8.713,8.713,0,0,0-8.7,8.7v3.73H12.6v9.946h4.973V39.951H6.217a3.734,3.734,0,0,1-3.73-3.73Zm0,0" fill="#fff"/>
</svg>
