<svg id="instagram" xmlns="http://www.w3.org/2000/svg" width="42.421" height="42.429" viewBox="0 0 42.421 42.429">
  <path id="Path_23" data-name="Path 23" d="M42.762,12.474a15.5,15.5,0,0,0-.986-5.147,10.869,10.869,0,0,0-6.208-6.208A15.544,15.544,0,0,0,30.42.133C28.149.025,27.428,0,21.667,0s-6.482.025-8.745.124a15.508,15.508,0,0,0-5.147.986A10.353,10.353,0,0,0,4.013,3.564,10.446,10.446,0,0,0,1.568,7.319a15.545,15.545,0,0,0-.986,5.147C.473,14.737.449,15.458.449,21.219S.473,27.7.573,29.964a15.5,15.5,0,0,0,.987,5.147,10.867,10.867,0,0,0,6.208,6.208,15.546,15.546,0,0,0,5.147.986c2.263.1,2.984.124,8.745.124s6.482-.025,8.745-.124a15.5,15.5,0,0,0,5.147-.986,10.853,10.853,0,0,0,6.208-6.208,15.556,15.556,0,0,0,.986-5.147c.1-2.263.124-2.984.124-8.745s-.008-6.482-.108-8.745ZM38.941,29.8a11.63,11.63,0,0,1-.729,3.937,7.038,7.038,0,0,1-4.028,4.028,11.671,11.671,0,0,1-3.937.729c-2.238.1-2.909.124-8.57.124s-6.341-.025-8.571-.124a11.623,11.623,0,0,1-3.937-.729A6.529,6.529,0,0,1,6.732,36.18a6.6,6.6,0,0,1-1.583-2.437,11.673,11.673,0,0,1-.729-3.937c-.1-2.238-.124-2.909-.124-8.571s.025-6.341.124-8.57a11.624,11.624,0,0,1,.729-3.937A6.449,6.449,0,0,1,6.74,6.291,6.587,6.587,0,0,1,9.177,4.708a11.679,11.679,0,0,1,3.937-.729c2.238-.1,2.909-.124,8.57-.124s6.341.025,8.571.124a11.63,11.63,0,0,1,3.937.729,6.524,6.524,0,0,1,2.437,1.583,6.6,6.6,0,0,1,1.583,2.437,11.677,11.677,0,0,1,.729,3.937c.1,2.238.124,2.909.124,8.57s-.025,6.324-.124,8.562Zm0,0" transform="translate(-0.449 0)" fill="#fff"/>
  <path id="Path_24" data-name="Path 24" d="M135.849,124.5a10.9,10.9,0,1,0,10.9,10.9A10.9,10.9,0,0,0,135.849,124.5Zm0,17.97a7.07,7.07,0,1,1,7.07-7.07A7.071,7.071,0,0,1,135.849,142.47Zm0,0" transform="translate(-114.63 -114.181)" fill="#fff"/>
  <path id="Path_25" data-name="Path 25" d="M367.539,91.146a2.545,2.545,0,1,1-2.545-2.545A2.545,2.545,0,0,1,367.539,91.146Zm0,0" transform="translate(-332.445 -81.258)" fill="#fff"/>
</svg>
