<svg xmlns="http://www.w3.org/2000/svg" width="42.438" height="42.438" viewBox="0 0 42.438 42.438">
  <path id="whatsapp" d="M36.5,6.167A21.15,21.15,0,0,0,.427,21.028,20.914,20.914,0,0,0,3.248,31.541l-3,10.9,11.2-2.924a21.188,21.188,0,0,0,10.1,2.56h.009a21.11,21.11,0,0,0,21.13-21.029A20.849,20.849,0,0,0,36.5,6.167ZM21.558,38.522H21.55a17.605,17.605,0,0,1-8.939-2.436l-.641-.379L5.323,37.442,7.1,30.992l-.418-.661A17.473,17.473,0,0,1,21.565,3.552a17.485,17.485,0,1,1-.007,34.97Zm9.634-13.091c-.528-.263-3.124-1.534-3.608-1.71s-.836-.263-1.188.263-1.364,1.71-1.672,2.06-.616.395-1.144.132a14.436,14.436,0,0,1-4.246-2.608,15.861,15.861,0,0,1-2.937-3.64c-.308-.526,0-.783.232-1.072a14.866,14.866,0,0,0,1.32-1.8.962.962,0,0,0-.044-.921c-.132-.263-1.188-2.849-1.627-3.9-.429-1.024-.864-.886-1.188-.9-.308-.015-.66-.018-1.012-.018a1.943,1.943,0,0,0-1.408.658,5.882,5.882,0,0,0-1.848,4.383,10.2,10.2,0,0,0,2.156,5.436c.264.351,3.723,5.658,9.019,7.934a30.313,30.313,0,0,0,3.01,1.107,7.271,7.271,0,0,0,3.325.208c1.015-.151,3.123-1.271,3.564-2.5a4.371,4.371,0,0,0,.308-2.5c-.132-.219-.484-.35-1.012-.614Zm0,0" transform="translate(-0.25)" fill="#fff" fill-rule="evenodd"/>
</svg>
